<svg width="512" height="512" xmlns="http://www.w3.org/2000/svg">

 <g>
  <title>background</title>
  <rect fill="none" id="canvas_background" height="402" width="582" y="-1" x="-1"/>
 </g>
 <g>
  <title>Layer 1</title>
  <path stroke="#ffffff" id="svg_3" fill="#ffffff" d="m254.210476,144c-61.75,0 -112,50.25 -112,112c0,61.749 50.25,112 112,112s112,-50.251 112,-112c0,-61.75 -50.25,-112 -112,-112zm0,-32c8.833,0 16,-7.146 16,-16l0,-32c0,-8.833 -7.167,-16 -16,-16c-8.854,0 -16,7.167 -16,16l0,32c0,8.854 7.146,16 16,16zm0,288c-8.854,0 -16,7.167 -16,16l0,32c0,8.854 7.146,16 16,16c8.833,0 16,-7.146 16,-16l0,-32c0,-8.833 -7.167,-16 -16,-16zm124.417,-245.833l22.625,-22.625c6.25,-6.25 6.25,-16.375 0,-22.625c-6.251,-6.25 -16.375,-6.25 -22.625,0l-22.625,22.625c-6.251,6.25 -6.251,16.375 0,22.625c6.25,6.249 16.374,6.249 22.625,0zm-248.876,203.687l-22.623,22.625c-6.252,6.25 -6.252,16.377 0,22.625c6.249,6.25 16.373,6.25 22.623,0l22.625,-22.625c6.251,-6.291 6.251,-16.375 0,-22.625c-6.249,-6.25 -16.374,-6.292 -22.625,0zm-19.541,-101.854c0,-8.833 -7.167,-16 -16,-16l-32,0c-8.854,0 -16,7.167 -16,16c0,8.854 7.146,16 16,16l32,0c8.833,0 16,-7.146 16,-16zm336,-16l-32,0c-8.854,0 -16,7.167 -16,16c0,8.854 7.146,16 16,16l32,0c8.833,0 16,-7.146 16,-16c0,-8.833 -7.167,-16 -16,-16zm-316.479,-85.833c6.249,6.25 16.375,6.25 22.625,0c6.249,-6.25 6.249,-16.375 0,-22.625l-22.625,-22.625c-6.25,-6.25 -16.376,-6.25 -22.625,0c-6.25,6.25 -6.25,16.375 0,22.625l22.625,22.625zm248.938,203.645c-6.293,-6.25 -16.376,-6.25 -22.625,0c-6.25,6.248 -6.293,16.375 0,22.625l22.625,22.625c6.249,6.248 16.374,6.248 22.625,0c6.249,-6.25 6.249,-16.377 0,-22.625l-22.625,-22.625z"/>
  <polyline stroke-linecap="round" id="svg_4" points="210.81451201558838,253.7071788470864 210.81451201558838,253.7071788470864 " fill-opacity="null" stroke-opacity="null" stroke-width="null" stroke="null" fill="none"/>
 </g>
</svg>