<svg height="512pt" viewBox="-5 0 512 512" width="512pt" xmlns="http://www.w3.org/2000/svg"><path d="m256.535156 512c-68.523437 0-132.945312-26.683594-181.398437-75.136719s-75.136719-112.875-75.136719-181.394531c0-61.332031 21.121094-124.40625 62.9375-169.167969 74.953125-80.226562 166.199219-86.300781 166.199219-86.300781s-176.46875 201.511719 5.292969 330.058594c128.882812 91.144531 266.140624-44.714844 266.140624-44.714844s12.121094 85.164062-76.863281 164.703125c-45.683593 40.832031-105.824219 61.953125-167.171875 61.953125zm-92.199218-463.019531c-30.222657 13.523437-57.410157 33.664062-79.347657 59.175781-35.191406 40.9375-54.570312 93.25-54.570312 147.3125 0 60.394531 23.519531 117.179688 66.226562 159.886719s99.492188 66.230469 159.890625 66.230469c54.074219 0 106.398438-19.390626 147.339844-54.601563 25.464844-21.902344 45.574219-49.03125 59.089844-79.1875-26.15625 19.664063-56.730469 33.148437-89.722656 39.199219-54.199219 9.9375-109.425782-1.253906-155.507813-31.511719-98.3125-64.558594-125.773437-197.0625-61.214844-295.378906 2.496094-3.800781 5.101563-7.507813 7.816407-11.125zm0 0"/>
<style>
    svg {
        fill:#aaa;
    }
</style></svg>