<?xml version="1.0" encoding="UTF-8"?>
<svg xmlns="http://www.w3.org/2000/svg" xmlns:xlink="http://www.w3.org/1999/xlink" width="48pt" height="48pt" viewBox="0 0 48 48" version="1.1">
<g id="surface17424906">
<path style=" stroke:none;fill-rule:nonzero;fill:rgb(100%,100%,100%);fill-opacity:1;" d="M 23.75 0.375 C 22.742188 0.5 21.992188 1.359375 22 2.375 L 22 6.375 C 21.992188 7.09375 22.367188 7.765625 22.992188 8.132812 C 23.617188 8.492188 24.382812 8.492188 25.007812 8.132812 C 25.632812 7.765625 26.007812 7.09375 26 6.375 L 26 2.375 C 26.007812 1.796875 25.757812 1.25 25.328125 0.867188 C 24.898438 0.484375 24.320312 0.304688 23.75 0.375 Z M 8 6.75 C 7.25 6.882812 6.648438 7.429688 6.4375 8.15625 C 6.226562 8.890625 6.445312 9.671875 7 10.1875 L 9.8125 13 C 10.296875 13.59375 11.070312 13.867188 11.820312 13.695312 C 12.5625 13.523438 13.148438 12.9375 13.320312 12.195312 C 13.492188 11.445312 13.21875 10.671875 12.625 10.1875 L 9.8125 7.375 C 9.4375 6.976562 8.921875 6.757812 8.375 6.75 C 8.3125 6.75 8.25 6.75 8.1875 6.75 C 8.125 6.75 8.0625 6.75 8 6.75 Z M 39.375 6.75 C 38.921875 6.8125 38.5 7.039062 38.1875 7.375 L 35.375 10.1875 C 34.78125 10.671875 34.507812 11.445312 34.679688 12.195312 C 34.851562 12.9375 35.4375 13.523438 36.179688 13.695312 C 36.929688 13.867188 37.703125 13.59375 38.1875 13 L 41 10.1875 C 41.59375 9.617188 41.773438 8.734375 41.453125 7.976562 C 41.140625 7.21875 40.382812 6.734375 39.5625 6.75 C 39.5 6.75 39.4375 6.75 39.375 6.75 Z M 24 10.375 C 16.3125 10.375 10 16.6875 10 24.375 C 10 32.0625 16.3125 38.375 24 38.375 C 31.6875 38.375 38 32.0625 38 24.375 C 38 16.6875 31.6875 10.375 24 10.375 Z M 24 14.375 C 29.507812 14.375 34 18.867188 34 24.375 C 34 29.882812 29.507812 34.375 24 34.375 C 18.492188 34.375 14 29.882812 14 24.375 C 14 18.867188 18.492188 14.375 24 14.375 Z M 1.625 22.375 C 0.523438 22.476562 -0.289062 23.460938 -0.1875 24.5625 C -0.0859375 25.664062 0.898438 26.476562 2 26.375 L 6 26.375 C 6.71875 26.382812 7.390625 26.007812 7.757812 25.382812 C 8.117188 24.757812 8.117188 23.992188 7.757812 23.367188 C 7.390625 22.742188 6.71875 22.367188 6 22.375 L 2 22.375 C 1.9375 22.375 1.875 22.375 1.8125 22.375 C 1.75 22.375 1.6875 22.375 1.625 22.375 Z M 41.625 22.375 C 40.523438 22.476562 39.710938 23.460938 39.8125 24.5625 C 39.914062 25.664062 40.898438 26.476562 42 26.375 L 46 26.375 C 46.71875 26.382812 47.390625 26.007812 47.757812 25.382812 C 48.117188 24.757812 48.117188 23.992188 47.757812 23.367188 C 47.390625 22.742188 46.71875 22.367188 46 22.375 L 42 22.375 C 41.9375 22.375 41.875 22.375 41.8125 22.375 C 41.75 22.375 41.6875 22.375 41.625 22.375 Z M 10.9375 35.1875 C 10.5 35.265625 10.109375 35.484375 9.8125 35.8125 L 7 38.5625 C 6.203125 39.335938 6.195312 40.609375 6.96875 41.40625 C 7.742188 42.203125 9.015625 42.210938 9.8125 41.4375 L 12.625 38.625 C 13.273438 38.023438 13.445312 37.070312 13.054688 36.28125 C 12.671875 35.484375 11.804688 35.046875 10.9375 35.1875 Z M 36.375 35.1875 C 35.625 35.320312 35.023438 35.867188 34.8125 36.59375 C 34.601562 37.328125 34.820312 38.109375 35.375 38.625 L 38.1875 41.4375 C 38.984375 42.210938 40.257812 42.203125 41.03125 41.40625 C 41.804688 40.609375 41.796875 39.335938 41 38.5625 L 38.1875 35.8125 C 37.773438 35.367188 37.171875 35.140625 36.5625 35.1875 C 36.5 35.1875 36.4375 35.1875 36.375 35.1875 Z M 23.75 40.375 C 22.742188 40.5 21.992188 41.359375 22 42.375 L 22 46.375 C 21.992188 47.09375 22.367188 47.765625 22.992188 48.132812 C 23.617188 48.492188 24.382812 48.492188 25.007812 48.132812 C 25.632812 47.765625 26.007812 47.09375 26 46.375 L 26 42.375 C 26.007812 41.796875 25.757812 41.25 25.328125 40.867188 C 24.898438 40.484375 24.320312 40.304688 23.75 40.375 Z M 23.75 40.375 "/>
</g>
</svg>
